# xmcd CD database file
#
# Track frame offsets:
#	150
#	16558
#	27202
#	37361
#	50114
#	77492
#	92653
#	117367
#	132631
#	143015
#	156847
#
# Disc length: 2210 seconds
#
# Revision: 0
# Processed by: cddbd v1.5.1PL0 Copyright (c) Steve Scherf et al.
# Submitted via: CDex 1.51
#
DISCID=8e08a00b
DTITLE=Dave Schmeidler - Skyrats Scraps
DYEAR=2002
DGENRE=Jazz
TTITLE0=Blues For Sonny
TTITLE1=The Driving Dead
TTITLE2=The Geek Sheik
TTITLE3=U T Two
TTITLE4=The Maze
TTITLE5=Perfect Time
TTITLE6=State of Affairs
TTITLE7=Morontyme
TTITLE8=Lullaby
TTITLE9=The Vanity Dance
TTITLE10=Arghhh
EXTD=YEAR: 2002
EXTT0=
EXTT1=
EXTT2=
EXTT3=
EXTT4=
EXTT5=
EXTT6=
EXTT7=
EXTT8=
EXTT9=
EXTT10=
PLAYORDER=
